# Blender v2.80 (sub 75) OBJ File: 'head.blend'
# www.blender.org
o Cube
v 0.619347 0.951642 -0.728658
v 0.573406 -0.777557 -0.757530
v 0.566843 0.931953 0.736488
v 0.418396 -1.013824 0.880843
v 0.730918 -0.345003 0.880843
v 0.811764 0.216961 0.985248
v 0.783422 -0.345003 -0.878788
v 0.864268 0.216961 -0.878788
v 0.835925 1.089465 -0.292244
v 0.835925 1.089465 0.294299
v 0.505128 -1.106016 0.469707
v 0.518433 -1.106016 -0.393946
v 1.000000 -0.345003 -0.292244
v 1.000000 -0.345003 0.294299
v 1.080847 0.216961 -0.292244
v 1.080847 0.216961 0.294299
v 0.513780 -1.549037 0.506083
v 0.527084 -1.549037 -0.492926
v -0.619347 0.951642 -0.728658
v -0.573406 -0.777557 -0.757530
v -0.566843 0.931953 0.736488
v -0.418396 -1.013824 0.880843
v -0.730918 -0.345003 0.880843
v -0.811764 0.216961 0.985248
v -0.783422 -0.345003 -0.878788
v -0.864268 0.216961 -0.878788
v 0.000000 -0.892423 -0.780346
v 0.000000 1.059092 0.944360
v 0.000000 -1.262559 0.997909
v 0.000000 0.971139 -0.806142
v 0.000000 0.216961 -0.988217
v 0.000000 -0.345003 -0.988217
v 0.000000 0.206390 1.089696
v 0.000000 -0.390944 1.359342
v -0.835925 1.089465 -0.292244
v -0.835925 1.089465 0.294299
v -0.505128 -1.106016 0.469707
v -0.518433 -1.106016 -0.393946
v 0.000000 -1.281192 -0.292244
v 0.000000 -1.179258 0.686188
v 0.000000 1.216603 -0.292244
v 0.000000 1.290959 0.294299
v -1.000000 -0.345003 -0.292244
v -1.000000 -0.345003 0.294299
v -1.080847 0.216961 -0.292244
v -1.080847 0.216961 0.294299
v -0.513780 -1.549037 0.506083
v -0.527084 -1.549037 -0.492926
v 0.000000 -1.724213 -0.492926
v 0.000000 -1.622278 0.722564
vn 0.1077 -0.3529 -0.9294
vn 0.4372 -0.3445 0.8308
vn 0.1383 0.0000 -0.9904
vn 0.4487 -0.8634 -0.2307
vn 0.8512 0.4069 0.3315
vn 0.1220 0.2376 -0.9637
vn 0.8710 -0.4070 0.2750
vn 0.4957 0.3573 0.7916
vn 0.1144 0.3612 0.9255
vn 0.2105 0.8734 0.4392
vn 0.9012 -0.1297 0.4135
vn 0.9297 -0.1337 -0.3433
vn 0.9898 -0.1424 0.0000
vn 0.1402 0.9220 -0.3608
vn 0.1504 0.9886 0.0000
vn 0.8219 -0.4789 -0.3084
vn 0.8396 -0.5430 0.0129
vn 0.8759 0.3581 -0.3234
vn 0.9628 0.2703 0.0000
vn 0.1407 -0.7744 -0.6168
vn -0.1359 0.4088 -0.9025
vn 0.9998 0.0165 0.0133
vn 0.3824 0.0830 0.9203
vn -0.1077 -0.3529 -0.9294
vn -0.5410 -0.2528 0.8021
vn -0.1383 0.0000 -0.9904
vn -0.2473 -0.9330 0.2614
vn -0.7954 0.2233 0.5635
vn -0.1279 0.2328 -0.9641
vn -0.8146 -0.4436 0.3737
vn -0.1276 -0.1989 0.9717
vn -0.1144 0.3612 0.9255
vn -0.2105 0.8734 0.4392
vn -0.9012 -0.1297 0.4135
vn -0.9297 -0.1337 -0.3433
vn -0.9898 -0.1424 0.0000
vn -0.0820 0.8993 -0.4296
vn -0.1504 0.9886 0.0000
vn -0.8211 -0.4836 -0.3032
vn -0.8450 -0.5347 0.0000
vn -0.8759 0.3581 -0.3234
vn -0.9628 0.2703 0.0000
vn -0.1746 -0.7436 -0.6454
vn 0.2550 0.2061 -0.9447
vn -0.9997 0.0208 0.0154
vn -0.3824 0.0830 0.9203
vn 0.1308 -0.3260 -0.9363
vn 0.5410 -0.2528 0.8021
vn 0.1256 -0.0181 -0.9919
vn 0.2473 -0.9330 0.2614
vn 0.7954 0.2233 0.5635
vn 0.1279 0.2328 -0.9641
vn 0.8146 -0.4436 0.3737
vn 0.1276 -0.1989 0.9717
vn 0.3707 0.1560 0.9155
vn 0.3172 0.8932 0.3186
vn 0.9135 -0.1975 0.3557
vn 0.0820 0.8993 -0.4296
vn 0.2326 0.9649 -0.1223
vn 0.8211 -0.4836 -0.3032
vn 0.8450 -0.5347 0.0000
vn 0.8389 0.2355 -0.4907
vn 0.1746 -0.7436 -0.6454
vn -0.2550 0.2061 -0.9447
vn 0.9997 0.0208 0.0154
vn 0.3780 0.0758 0.9227
vn -0.1308 -0.3260 -0.9363
vn -0.4372 -0.3445 0.8308
vn -0.1256 -0.0181 -0.9919
vn -0.4487 -0.8634 -0.2307
vn -0.8512 0.4069 0.3315
vn -0.1220 0.2376 -0.9637
vn -0.8710 -0.4070 0.2750
vn -0.4957 0.3573 0.7916
vn -0.3707 0.1560 0.9155
vn -0.3172 0.8932 0.3186
vn -0.9135 -0.1975 0.3557
vn -0.1402 0.9220 -0.3608
vn -0.2326 0.9649 -0.1223
vn -0.8219 -0.4789 -0.3084
vn -0.8396 -0.5430 0.0129
vn -0.8389 0.2355 -0.4907
vn -0.1407 -0.7744 -0.6168
vn 0.1359 0.4088 -0.9025
vn -0.9998 0.0165 0.0133
vn -0.3780 0.0758 0.9227
s off
f 32//1 2//1 27//1
f 4//2 34//2 29//2
f 31//3 7//3 32//3
f 40//4 4//4 29//4
f 16//5 3//5 6//5
f 31//6 1//6 8//6
f 11//7 5//7 4//7
f 5//8 33//8 34//8
f 3//9 33//9 6//9
f 42//10 3//10 10//10
f 16//11 5//11 14//11
f 8//12 13//12 7//12
f 15//13 14//13 13//13
f 1//14 41//14 9//14
f 41//15 10//15 9//15
f 2//16 13//16 12//16
f 12//17 14//17 11//17
f 1//18 15//18 8//18
f 9//19 16//19 15//19
f 27//20 12//20 39//20
f 39//21 18//21 49//21
f 12//22 17//22 18//22
f 40//23 17//23 11//23
f 20//24 32//24 27//24
f 22//25 34//25 23//25
f 25//26 31//26 32//26
f 40//27 22//27 37//27
f 46//28 21//28 36//28
f 31//29 19//29 30//29
f 37//30 23//30 44//30
f 23//31 33//31 24//31
f 33//32 21//32 24//32
f 21//33 42//33 36//33
f 23//34 46//34 44//34
f 43//35 26//35 25//35
f 44//36 45//36 43//36
f 19//37 41//37 30//37
f 36//38 41//38 35//38
f 20//39 43//39 25//39
f 38//40 44//40 43//40
f 45//41 19//41 26//41
f 46//42 35//42 45//42
f 27//43 38//43 20//43
f 39//44 48//44 38//44
f 38//45 47//45 37//45
f 47//46 40//46 37//46
f 32//47 7//47 2//47
f 4//48 5//48 34//48
f 31//49 8//49 7//49
f 40//50 11//50 4//50
f 16//51 10//51 3//51
f 31//52 30//52 1//52
f 11//53 14//53 5//53
f 5//54 6//54 33//54
f 3//55 28//55 33//55
f 42//56 28//56 3//56
f 16//57 6//57 5//57
f 8//12 15//12 13//12
f 15//13 16//13 14//13
f 1//58 30//58 41//58
f 41//59 42//59 10//59
f 2//60 7//60 13//60
f 12//61 13//61 14//61
f 1//62 9//62 15//62
f 9//19 10//19 16//19
f 27//63 2//63 12//63
f 39//64 12//64 18//64
f 12//65 11//65 17//65
f 40//66 50//66 17//66
f 20//67 25//67 32//67
f 22//68 29//68 34//68
f 25//69 26//69 31//69
f 40//70 29//70 22//70
f 46//71 24//71 21//71
f 31//72 26//72 19//72
f 37//73 22//73 23//73
f 23//74 34//74 33//74
f 33//75 28//75 21//75
f 21//76 28//76 42//76
f 23//77 24//77 46//77
f 43//35 45//35 26//35
f 44//36 46//36 45//36
f 19//78 35//78 41//78
f 36//79 42//79 41//79
f 20//80 38//80 43//80
f 38//81 37//81 44//81
f 45//82 35//82 19//82
f 46//42 36//42 35//42
f 27//83 39//83 38//83
f 39//84 49//84 48//84
f 38//85 48//85 47//85
f 47//86 50//86 40//86
